<svg width="512" height="512" viewBox="0 0 512 512" fill="none" xmlns="http://www.w3.org/2000/svg">
<g clip-path="url(#clip0_6_2)">
<rect width="512" height="512" fill="white"/>
<path d="M135.318 419V93.1818H265.773C289.742 93.1818 309.735 96.7348 325.75 103.841C341.765 110.947 353.803 120.811 361.864 133.432C369.924 145.947 373.955 160.371 373.955 176.705C373.955 189.432 371.409 200.621 366.318 210.273C361.227 219.818 354.227 227.667 345.318 233.818C336.515 239.864 326.439 244.159 315.091 246.705V249.886C327.5 250.417 339.114 253.917 349.932 260.386C360.856 266.856 369.712 275.924 376.5 287.591C383.288 299.152 386.682 312.939 386.682 328.955C386.682 346.242 382.386 361.674 373.795 375.25C365.311 388.72 352.742 399.379 336.091 407.227C319.439 415.076 298.917 419 274.523 419H135.318ZM204.205 362.682H260.364C279.561 362.682 293.561 359.023 302.364 351.705C311.167 344.28 315.568 334.417 315.568 322.114C315.568 313.098 313.394 305.144 309.045 298.25C304.697 291.356 298.492 285.947 290.432 282.023C282.477 278.098 272.985 276.136 261.955 276.136H204.205V362.682ZM204.205 229.523H255.273C264.712 229.523 273.091 227.879 280.409 224.591C287.833 221.197 293.667 216.424 297.909 210.273C302.258 204.121 304.432 196.75 304.432 188.159C304.432 176.386 300.242 166.894 291.864 159.682C283.591 152.47 271.818 148.864 256.545 148.864H204.205V229.523Z" fill="black"/>
</g>
<defs>
<clipPath id="clip0_6_2">
<rect width="512" height="512" fill="white"/>
</clipPath>
</defs>
</svg>
